<svg width="98" height="98" viewBox="0 0 98 98" fill="none" xmlns="http://www.w3.org/2000/svg">
<path d="M48.9993 65.3333C58.02 65.3333 65.3327 58.0206 65.3327 49C65.3327 39.9793 58.02 32.6666 48.9993 32.6666C39.9787 32.6666 32.666 39.9793 32.666 49C32.666 58.0206 39.9787 65.3333 48.9993 65.3333Z" stroke="#66C272" stroke-width="2" stroke-linecap="round" stroke-linejoin="round"/>
<path d="M65.3327 32.6667V53.0833C65.3327 56.3322 66.6233 59.4481 68.9207 61.7454C71.218 64.0427 74.3338 65.3333 77.5827 65.3333C80.8316 65.3333 83.9475 64.0427 86.2448 61.7454C88.5421 59.4481 89.8327 56.3322 89.8327 53.0833V49C89.8321 39.784 86.714 30.8393 80.9852 23.6202C75.2565 16.401 67.2541 11.3322 58.2793 9.2377C49.3045 7.14325 39.8851 8.14641 31.5527 12.0841C23.2203 16.0217 16.465 22.6623 12.3852 30.926C8.30537 39.1897 7.141 48.5906 9.08141 57.6C11.0218 66.6093 15.9529 74.6974 23.0728 80.5489C30.1927 86.4005 39.0827 89.6714 48.2973 89.8299C57.5119 89.9883 66.5092 87.025 73.8261 81.4217" stroke="#66C272" stroke-width="2" stroke-linecap="round" stroke-linejoin="round"/>
</svg>
