<svg width="120" height="120" viewBox="0 0 120 120" fill="none" xmlns="http://www.w3.org/2000/svg">
<path d="M37.3342 89.1179H41.3341C42.0705 89.1179 42.6674 88.5228 42.6674 87.7887C42.6674 87.0546 42.0705 86.4595 41.3341 86.4595H37.3342C36.5978 86.4595 36.0009 87.0546 36.0009 87.7887C36.0009 88.5228 36.5978 89.1179 37.3342 89.1179Z" fill="white"/>
<path d="M45.3345 87.7887C45.3345 88.5228 45.9314 89.1179 46.6678 89.1179H84.0005C84.7369 89.1179 85.3339 88.5228 85.3339 87.7887C85.3339 87.0546 84.7369 86.4595 84.0005 86.4595H46.6678C45.9314 86.4595 45.3345 87.0546 45.3345 87.7887Z" fill="white"/>
<path d="M90.6666 86.4595H89.3333C88.5969 86.4595 88 87.0546 88 87.7887C88 88.5228 88.5969 89.1179 89.3333 89.1179H90.6666C91.403 89.1179 91.9999 88.5228 91.9999 87.7887C91.9999 87.0546 91.403 86.4595 90.6666 86.4595Z" fill="white"/>
<path d="M86.6671 83.801H90.667C91.4034 83.801 92.0003 83.2059 92.0003 82.4718C92.0003 81.7377 91.4034 81.1426 90.667 81.1426H86.6671C85.9307 81.1426 85.3337 81.7377 85.3337 82.4718C85.3337 83.2059 85.9307 83.801 86.6671 83.801Z" fill="white"/>
<path d="M57.3338 83.801H81.3334C82.0698 83.801 82.6667 83.2059 82.6667 82.4718C82.6667 81.7377 82.0698 81.1426 81.3334 81.1426H57.3338C56.5974 81.1426 56.0005 81.7377 56.0005 82.4718C56.0005 83.2059 56.5974 83.801 57.3338 83.801Z" fill="white"/>
<path d="M37.3342 83.801H52.0006C52.737 83.801 53.3339 83.2059 53.3339 82.4718C53.3339 81.7377 52.737 81.1426 52.0006 81.1426H37.3342C36.5978 81.1426 36.0009 81.7377 36.0009 82.4718C36.0009 83.2059 36.5978 83.801 37.3342 83.801Z" fill="white"/>
<path d="M97.3334 70.5088H34.6677C30.5957 70.5103 26.7075 72.1987 23.9331 75.17C21.1586 78.1414 19.7475 82.1285 20.0372 86.1777C20.725 93.926 27.2803 99.8403 35.0823 99.7517H97.3334C98.8061 99.7517 100 98.5615 100 97.0933V94.4348C100 92.9666 98.8061 91.7764 97.3334 91.7764V78.4841C98.8061 78.4841 100 77.2939 100 75.8257V73.1672C100 71.699 98.8061 70.5088 97.3334 70.5088ZM94.6667 91.7764H34.9423C31.521 91.8466 28.5766 89.3796 28.0571 86.0075C27.8066 84.1089 28.3886 82.1947 29.6543 80.7542C30.92 79.3137 32.7468 78.4865 34.6677 78.4841H94.6667V91.7764ZM97.3334 75.8257H34.6677C31.9799 75.8254 29.4225 76.9802 27.6502 78.9946C25.8778 81.0089 25.0626 83.6872 25.4131 86.3438C26.1032 91.0425 30.1795 94.5036 34.9423 94.4348H97.3334V97.0933H35.0823C28.6782 97.1879 23.2811 92.3502 22.6972 85.9916C22.4572 82.6775 23.6106 79.4132 25.8812 76.9807C28.1517 74.5482 31.3347 73.1667 34.6677 73.1672H97.3334V75.8257Z" fill="white"/>
<path d="M98.2282 33.4478L60.9088 20.1555C60.3195 19.9482 59.6768 19.9482 59.0875 20.1555L21.7774 33.4478C20.7199 33.8278 20.015 34.8281 20.015 35.9487C20.015 37.0693 20.7199 38.0696 21.7774 38.4496L40.0038 44.9415V55.8877C40.0038 61.0557 57.9568 61.2046 60.0035 61.2046C62.0501 61.2046 80.0032 61.0557 80.0032 55.8877V44.9415L84.0031 43.5259V46.5831C84.0031 48.0514 85.197 49.2416 86.6697 49.2416H89.3363C90.8091 49.2416 92.003 48.0514 92.003 46.5831V42.5955C91.999 41.9799 91.8501 41.374 91.5683 40.8263L98.2349 38.4496C99.2923 38.0696 99.9972 37.0693 99.9972 35.9487C99.9972 34.8281 99.2923 33.8278 98.2349 33.4478H98.2282ZM77.3365 52.9634C72.2579 50.6585 61.5568 50.5708 60.0035 50.5708C58.4502 50.5708 47.749 50.6585 42.6704 52.9634V38.7248C43.4704 37.7013 49.7583 35.9493 60.0035 35.9493C70.2486 35.9493 76.5365 37.7013 77.3365 38.7248V52.9634ZM60.0035 58.5461C50.1369 58.5461 43.941 56.9218 42.7824 55.8877C43.941 54.8536 50.1396 53.2292 60.0035 53.2292C69.8673 53.2292 76.0659 54.8536 77.2245 55.8877C76.0659 56.9218 69.87 58.5461 60.0035 58.5461V58.5461ZM84.6284 40.4754L80.0032 42.1196V38.6078C80.0032 33.4398 62.0501 33.2909 60.0035 33.2909C57.9568 33.2909 40.0038 33.4398 40.0038 38.6078V42.1183L22.6707 35.9493L60.0221 22.6571L86.6697 32.1504V38.8524C85.8266 39.1511 85.1081 39.7224 84.6284 40.4754ZM89.3363 46.5831H86.6697V42.5955C86.6697 41.8614 87.2667 41.2662 88.003 41.2662C88.7394 41.2662 89.3363 41.8614 89.3363 42.5955V46.5831ZM89.3363 38.7992V33.1008L97.3362 35.9493L89.3363 38.7992Z" fill="white"/>
</svg>
