<svg width="216" height="63" viewBox="0 0 216 63" fill="none" xmlns="http://www.w3.org/2000/svg">
<path d="M41.442 57.6716C41.1214 57.6689 40.8071 57.5824 40.5303 57.4205C40.2535 57.2587 40.0237 57.0272 39.8638 56.7491C39.7039 56.471 39.6195 56.1558 39.6189 55.8349C39.6182 55.514 39.7014 55.1985 39.8602 54.9198C42.5101 50.421 51.7441 45.5717 62.5073 45.0868V3.74506C48.3762 4.60976 37.6889 15.1146 37.578 15.2256L36.2238 16.5753L34.928 15.1906C34.823 15.0796 24.8886 4.58639 10.0629 3.75675L10.2963 45.5717C20.3475 45.9924 30.4103 50.0121 33.2703 54.9198C33.4084 55.1288 33.5024 55.3638 33.5468 55.6104C33.5911 55.857 33.5849 56.1101 33.5284 56.3542C33.4719 56.5983 33.3664 56.8283 33.2183 57.0303C33.0701 57.2323 32.8825 57.4019 32.6667 57.529C32.4509 57.656 32.2116 57.7378 31.9633 57.7692C31.7149 57.8007 31.4628 57.7813 31.2222 57.7121C30.9816 57.6429 30.7576 57.5254 30.5638 57.3668C30.37 57.2081 30.2106 57.0117 30.0951 56.7894C28.0171 53.167 18.5906 49.1941 8.46356 49.1941H6.63078L6.35645 0H8.20674C22.5363 0 32.8092 8.17954 36.3172 11.3812C39.9886 8.17954 50.7402 0 64.3459 0H66.1904V48.7092H64.3459C53.6819 48.7092 44.9733 53.4708 43.0355 56.766C42.8722 57.0433 42.6391 57.2728 42.3595 57.4317C42.0799 57.5906 41.7635 57.6733 41.442 57.6716Z" fill="url(#paint0_linear_223_452)"/>
<path d="M36.9417 62.9999C34.865 62.9234 32.7988 62.6673 30.7662 62.2346L30.6203 62.1995L1.27244 54.9197L0 6.42675H8.20667C8.45722 6.41262 8.70802 6.44983 8.94372 6.53608C9.17941 6.62233 9.39504 6.75582 9.57741 6.92838C9.75979 7.10093 9.90506 7.30892 10.0043 7.53962C10.1036 7.77032 10.1548 8.01887 10.1548 8.27007C10.1548 8.52126 10.1036 8.76981 10.0043 9.00051C9.90506 9.23121 9.75979 9.4392 9.57741 9.61176C9.39504 9.78431 9.17941 9.9178 8.94372 10.0041C8.70802 10.0903 8.45722 10.1275 8.20667 10.1134H3.7823L4.87964 51.9985L31.4433 58.5947C36.3697 59.4535 36.9242 59.547 41.5995 58.7816L67.813 52.3899L68.7819 9.85631H64.3459C63.8754 9.82979 63.4329 9.62402 63.1092 9.28125C62.7855 8.93847 62.6051 8.48468 62.6051 8.013C62.6051 7.54131 62.7855 7.08752 63.1092 6.74474C63.4329 6.40197 63.8754 6.1962 64.3459 6.16968H72.5525L71.4319 55.2995L42.2474 62.4099C40.4978 62.7507 38.7234 62.9481 36.9417 62.9999V62.9999Z" fill="url(#paint1_linear_223_452)"/>
<path d="M36.2761 55.7027C35.7879 55.7011 35.3203 55.5059 34.9757 55.1599C34.631 54.8138 34.4375 54.3451 34.4375 53.8565V38.9171C34.4234 38.6663 34.4605 38.4153 34.5467 38.1793C34.6329 37.9434 34.7662 37.7276 34.9386 37.545C35.111 37.3625 35.3188 37.2171 35.5493 37.1177C35.7798 37.0183 36.0281 36.967 36.279 36.967C36.53 36.967 36.7783 37.0183 37.0088 37.1177C37.2393 37.2171 37.4471 37.3625 37.6194 37.545C37.7918 37.7276 37.9252 37.9434 38.0114 38.1793C38.0975 38.4153 38.1347 38.6663 38.1206 38.9171V53.8565C38.1206 54.3461 37.9263 54.8157 37.5804 55.1619C37.2344 55.5082 36.7653 55.7027 36.2761 55.7027V55.7027Z" fill="url(#paint2_linear_223_452)"/>
<path d="M47.863 33.6004H24.7197C22.6979 33.6004 20.759 32.7965 19.3294 31.3655C17.8998 29.9346 17.0967 27.9938 17.0967 25.9701C17.0967 23.9464 17.8998 22.0056 19.3294 20.5746C20.759 19.1436 22.6979 18.3397 24.7197 18.3397H31.2687C31.5109 18.3397 31.7507 18.3875 31.9745 18.4803C32.1983 18.573 32.4016 18.709 32.5729 18.8805C32.7442 19.0519 32.88 19.2554 32.9727 19.4794C33.0654 19.7034 33.1131 19.9435 33.1131 20.186C33.1131 20.4284 33.0654 20.6685 32.9727 20.8925C32.88 21.1165 32.7442 21.32 32.5729 21.4914C32.4016 21.6629 32.1983 21.7989 31.9745 21.8917C31.7507 21.9844 31.5109 22.0322 31.2687 22.0322H24.7197C24.1899 22.0118 23.6615 22.0986 23.166 22.2874C22.6706 22.4763 22.2183 22.7633 21.8362 23.1312C21.4542 23.4992 21.1503 23.9405 20.9427 24.4288C20.7351 24.9171 20.6281 25.4423 20.6281 25.973C20.6281 26.5037 20.7351 27.0289 20.9427 27.5172C21.1503 28.0055 21.4542 28.4468 21.8362 28.8148C22.2183 29.1827 22.6706 29.4697 23.166 29.6585C23.6615 29.8474 24.1899 29.9342 24.7197 29.9138H34.4381V18.3397H47.863C49.8847 18.3397 51.8236 19.1436 53.2532 20.5746C54.6828 22.0056 55.4859 23.9464 55.4859 25.9701C55.4859 27.9938 54.6828 29.9346 53.2532 31.3655C51.8236 32.7965 49.8847 33.6004 47.863 33.6004V33.6004ZM38.1212 29.9138H47.863C48.3927 29.9342 48.9212 29.8474 49.4166 29.6585C49.9121 29.4697 50.3643 29.1827 50.7464 28.8148C51.1284 28.4468 51.4323 28.0055 51.6399 27.5172C51.8475 27.0289 51.9545 26.5037 51.9545 25.973C51.9545 25.4423 51.8475 24.9171 51.6399 24.4288C51.4323 23.9405 51.1284 23.4992 50.7464 23.1312C50.3643 22.7633 49.9121 22.4763 49.4166 22.2874C48.9212 22.0986 48.3927 22.0118 47.863 22.0322H38.1212V29.9138Z" fill="url(#paint3_linear_223_452)"/>
<path d="M89.1349 12.6614H84.8447L83.9167 14.7063H83.0703L86.5725 7H87.3721L90.8743 14.7063H90.0162L89.1349 12.6614ZM88.8372 12.0012L86.9694 7.85885L85.1249 12.0012H88.8372Z" fill="#3A3C66"/>
<path d="M104.41 11.2008H102.659V14.7063H101.854V7.01172H102.647V10.4705H104.398L107.002 7.01172H107.883L105.064 10.7568L108.058 14.7063H107.124L104.41 11.2008Z" fill="#3A3C66"/>
<path d="M123.619 12.6614H119.329L118.401 14.7063H117.555L121.057 7H121.862L125.364 14.7063H124.506L123.619 12.6614ZM123.322 12.0012L121.471 7.85885L119.656 12.0012H123.322Z" fill="#3A3C66"/>
<path d="M143.436 14.0169V16.4591H142.677V14.7064H135.953V16.4591H135.194V14.0286H135.58C136.677 13.9644 136.922 11.9779 136.998 9.52404L137.085 7.02344H142.28V14.0345L143.436 14.0169ZM136.735 14.0169H141.475V7.69533H137.792L137.728 9.56494C137.658 11.5923 137.471 13.4561 136.735 14.0169V14.0169Z" fill="#3A3C66"/>
<path d="M160.006 14.0169V14.7063H154.561V7.01172H159.843V7.6953H155.372V10.4354H159.347V11.1307H155.36V13.9936L160.006 14.0169Z" fill="#3A3C66"/>
<path d="M179.274 7.01172V14.7063H178.492V8.55415L175.462 13.7423H175.106L172.083 8.58336V14.7063H171.301V7.01172H171.972L175.317 12.7257L178.609 7.01172H179.274Z" fill="#3A3C66"/>
<path d="M191.333 7.01172H192.133V13.3976L197.065 7.01172H197.8V14.7063H196.995V8.34382L192.068 14.7063H191.333V7.01172Z" fill="#3A3C66"/>
<path d="M215.317 7.01169V14.7063H214.511V12.3693H212.212C212.06 12.3693 211.92 12.3693 211.774 12.3693L210.157 14.7063H209.287L211.038 12.2115C210.505 12.0633 210.039 11.7351 209.72 11.2826C209.401 10.8301 209.248 10.281 209.287 9.72846C209.287 7.9757 210.49 7 212.322 7L215.317 7.01169ZM212.282 11.6857H214.511V7.69526H212.357C210.927 7.69526 210.104 8.38468 210.104 9.69925C210.104 11.0138 210.852 11.6916 212.282 11.6916V11.6857Z" fill="#3A3C66"/>
<path d="M85.0723 42.0961H82.2998V35.7979H84.0509C85.0683 34.3171 85.7989 32.6583 86.2047 30.9077C86.7209 28.3747 86.9519 25.7917 86.8934 23.2072V20.7767H99.2268V35.7979H101.912V42.0961H99.1509V38.3335H85.0723V42.0961ZM87.2787 35.7979H96.3084V23.3065H89.771C89.8062 25.7779 89.6206 28.2474 89.2165 30.6857C88.9174 32.502 88.2585 34.2401 87.2787 35.7979Z" fill="url(#paint4_linear_223_452)"/>
<path d="M120.69 36.049C118.821 37.7308 116.397 38.6612 113.884 38.6612C111.371 38.6612 108.947 37.7308 107.078 36.049C106.209 35.2087 105.523 34.1981 105.062 33.0802C104.601 31.9623 104.375 30.7613 104.399 29.5521C104.371 28.3468 104.595 27.1489 105.056 26.0351C105.517 24.9214 106.206 23.9164 107.078 23.0845C108.94 21.3893 111.367 20.45 113.884 20.45C116.401 20.45 118.827 21.3893 120.69 23.0845C121.549 23.9305 122.232 24.9395 122.698 26.0524C123.164 27.1653 123.404 28.36 123.404 29.5667C123.404 30.7735 123.164 31.9682 122.698 33.0811C122.232 34.194 121.549 35.203 120.69 36.049ZM109.261 34.2203C110.175 35.142 111.343 35.7695 112.615 36.0225C113.888 36.2754 115.207 36.1423 116.403 35.6402C117.599 35.1381 118.619 34.2898 119.33 33.2041C120.042 32.1184 120.414 30.8448 120.398 29.5463C120.38 28.483 120.102 27.4403 119.588 26.5094C119.075 25.5785 118.341 24.7877 117.451 24.2063C116.562 23.6249 115.543 23.2705 114.485 23.1742C113.427 23.0778 112.362 23.2425 111.382 23.6537C110.402 24.0649 109.538 24.7101 108.865 25.533C108.192 26.3558 107.731 27.3312 107.521 28.3738C107.312 29.4164 107.361 30.4945 107.665 31.5137C107.968 32.5329 108.516 33.4622 109.261 34.2203V34.2203Z" fill="url(#paint5_linear_223_452)"/>
<path d="M130.286 38.3335H127.367V20.8059H130.286V27.9514L137.914 20.7767H141.662L133.046 28.8044L143.045 38.3335H139.058L130.286 29.8969V38.3335Z" fill="url(#paint6_linear_223_452)"/>
<path d="M143.786 23.3066V20.7767H159.015V23.3066H152.851V38.3335H149.932V23.3066H143.786Z" fill="url(#paint7_linear_223_452)"/>
<path d="M176.23 36.1479C174.361 37.8296 171.937 38.76 169.424 38.76C166.911 38.76 164.487 37.8296 162.618 36.1479C161.747 35.3092 161.058 34.2989 160.596 33.1808C160.134 32.0626 159.908 30.8608 159.933 29.651C159.905 28.4451 160.129 27.2466 160.592 26.1327C161.054 25.0188 161.744 24.0141 162.618 23.1833C164.48 21.4882 166.907 20.5488 169.424 20.5488C171.941 20.5488 174.368 21.4882 176.23 23.1833C177.088 24.0302 177.769 25.0394 178.235 26.1522C178.7 27.265 178.939 28.4593 178.939 29.6656C178.939 30.8719 178.7 32.0662 178.235 33.179C177.769 34.2918 177.088 35.301 176.23 36.1479V36.1479ZM164.795 34.3192C165.709 35.2408 166.877 35.8684 168.15 36.1213C169.422 36.3743 170.741 36.2412 171.937 35.7391C173.134 35.237 174.153 34.3887 174.865 33.303C175.576 32.2173 175.948 30.9436 175.932 29.6452C175.955 28.7835 175.8 27.9263 175.475 27.1278C175.151 26.3294 174.664 25.6069 174.047 25.0062C173.138 24.0885 171.976 23.4631 170.71 23.2102C169.444 22.9573 168.132 23.0884 166.941 23.5866C165.749 24.0848 164.734 24.9276 164.024 26.0069C163.315 27.0863 162.943 28.3531 162.957 29.6452C162.928 30.5086 163.076 31.3688 163.393 32.1726C163.709 32.9765 164.186 33.707 164.795 34.3192V34.3192Z" fill="url(#paint8_linear_223_452)"/>
<path d="M185.993 38.3335H183.074V20.8059H191.077C193.022 20.8059 194.538 21.2811 195.624 22.2315C196.16 22.6691 196.59 23.2244 196.878 23.8545C197.167 24.4847 197.307 25.1727 197.287 25.8655C197.304 26.5778 197.163 27.285 196.873 27.9357C196.583 28.5865 196.152 29.1646 195.612 29.6281C194.538 30.5863 193.024 31.0654 191.071 31.0654H185.993V38.3335ZM185.993 23.3065V28.5648H190.831C191.744 28.6167 192.648 28.3729 193.411 27.8695C193.699 27.6356 193.931 27.3404 194.091 27.0053C194.25 26.6703 194.333 26.3038 194.333 25.9327C194.333 25.5616 194.25 25.1952 194.091 24.8601C193.931 24.5251 193.699 24.2298 193.411 23.9959C192.641 23.5008 191.734 23.2635 190.82 23.3182L185.993 23.3065Z" fill="url(#paint9_linear_223_452)"/>
<path d="M200.03 38.3335H196.919L205.05 20.6715H207.869L216 38.3335H212.865L210.846 33.9866H202.02L200.03 38.3335ZM206.451 24.1595L203.048 31.5386H209.836L206.451 24.1595Z" fill="url(#paint10_linear_223_452)"/>
<path d="M174.193 49.4699C175.413 49.4699 176.352 49.7453 177.011 50.2961C177.67 50.8371 178 51.6486 178 52.7305C178 53.8715 177.641 54.737 176.923 55.3272C176.215 55.9075 175.216 56.1976 173.928 56.1976H169.664V45.87H171.125V49.4699H174.193ZM173.869 55.0321C174.725 55.0321 175.379 54.8403 175.831 54.4567C176.293 54.0731 176.525 53.5075 176.525 52.76C176.525 52.0322 176.298 51.4961 175.846 51.1518C175.393 50.8076 174.734 50.6355 173.869 50.6355H171.125V55.0321H173.869Z" fill="#4FA8A3"/>
<path d="M161.922 56.3157C161.135 56.3157 160.407 56.1878 159.738 55.9321C159.079 55.6665 158.504 55.2976 158.012 54.8255C157.53 54.3436 157.151 53.7829 156.876 53.1436C156.601 52.5043 156.463 51.801 156.463 51.0338C156.463 50.2666 156.601 49.5633 156.876 48.924C157.151 48.2847 157.535 47.729 158.027 47.2568C158.519 46.7749 159.094 46.406 159.753 46.1503C160.422 45.8847 161.15 45.752 161.937 45.752C162.733 45.752 163.466 45.8897 164.135 46.1651C164.814 46.4306 165.389 46.829 165.861 47.3601L164.902 48.2896C164.509 47.8765 164.066 47.5716 163.574 47.3749C163.082 47.1683 162.556 47.065 161.996 47.065C161.415 47.065 160.874 47.1634 160.373 47.3601C159.881 47.5568 159.453 47.8322 159.089 48.1863C158.725 48.5404 158.44 48.9634 158.233 49.4551C158.037 49.9371 157.938 50.4633 157.938 51.0338C157.938 51.6043 158.037 52.1354 158.233 52.6272C158.44 53.1092 158.725 53.5272 159.089 53.8813C159.453 54.2354 159.881 54.5108 160.373 54.7075C160.874 54.9042 161.415 55.0026 161.996 55.0026C162.556 55.0026 163.082 54.9042 163.574 54.7075C164.066 54.5009 164.509 54.1862 164.902 53.7632L165.861 54.6927C165.389 55.2239 164.814 55.6271 164.135 55.9025C163.466 56.178 162.728 56.3157 161.922 56.3157Z" fill="#4FA8A3"/>
<path d="M145.62 54.8993C146.131 55.0862 146.604 55.1354 147.036 55.0468C147.469 54.9485 147.858 54.619 148.202 54.0583L148.703 53.2616L148.851 53.0993L152.643 45.87H154.103L149.515 54.3682C149.171 55.0173 148.767 55.5091 148.305 55.8435C147.853 56.1681 147.361 56.3452 146.83 56.3747C146.308 56.414 145.777 56.3157 145.236 56.0796L145.62 54.8993ZM148.807 54.4124L144.277 45.87H145.856L149.618 53.2321L148.807 54.4124Z" fill="#4FA8A3"/>
<path d="M133.72 56.1976V45.87H137.748C138.652 45.87 139.425 46.0126 140.064 46.2979C140.703 46.5831 141.195 46.9962 141.539 47.5372C141.883 48.0781 142.056 48.7224 142.056 49.4699C142.056 50.2174 141.883 50.8617 141.539 51.4027C141.195 51.9338 140.703 52.3469 140.064 52.642C139.425 52.9272 138.652 53.0698 137.748 53.0698H134.531L135.195 52.3764V56.1976H133.72ZM135.195 52.5239L134.531 51.7863H137.703C138.647 51.7863 139.361 51.5846 139.843 51.1814C140.334 50.7781 140.58 50.2076 140.58 49.4699C140.58 48.7322 140.334 48.1617 139.843 47.7585C139.361 47.3552 138.647 47.1536 137.703 47.1536H134.531L135.195 46.4159V52.5239Z" fill="#4FA8A3"/>
<path d="M119.338 56.1976L124.015 45.87H125.475L130.167 56.1976H128.618L124.443 46.6962H125.033L120.858 56.1976H119.338ZM121.33 53.6157L121.728 52.4354H127.541L127.969 53.6157H121.33Z" fill="#4FA8A3"/>
<path d="M106.856 56.3157C106.709 56.3157 106.561 56.3058 106.414 56.2862C106.266 56.2665 106.104 56.237 105.927 56.1976L106.03 54.8845C106.187 54.9239 106.345 54.9436 106.502 54.9436C106.935 54.9436 107.279 54.7714 107.535 54.4272C107.791 54.0829 107.978 53.5616 108.096 52.8633C108.223 52.1649 108.307 51.2846 108.346 50.2224L108.509 45.87H115.782V56.1976H114.336V46.77L114.69 47.1536H109.453L109.777 46.7552L109.659 50.1781C109.63 51.201 109.561 52.0961 109.453 52.8633C109.345 53.6305 109.182 54.2698 108.966 54.7813C108.75 55.2927 108.469 55.6763 108.125 55.9321C107.791 56.1878 107.368 56.3157 106.856 56.3157Z" fill="#4FA8A3"/>
<path d="M97.1033 50.3256H102.415V51.5797H97.1033V50.3256ZM97.2361 54.9141H103.256V56.1976H95.7607V45.87H103.049V47.1536H97.2361V54.9141Z" fill="#4FA8A3"/>
<path d="M83.1992 56.1976V45.87H90.9892V47.1241H84.6598V50.0748H87.8762C89.1056 50.0748 90.0401 50.3306 90.6794 50.842C91.3187 51.3535 91.6384 52.0961 91.6384 53.0698C91.6384 54.0731 91.2892 54.8452 90.5909 55.3862C89.9023 55.9271 88.9138 56.1976 87.6254 56.1976H83.1992ZM84.6598 55.0321H87.5663C88.4221 55.0321 89.0663 54.8698 89.4991 54.5452C89.9417 54.2206 90.163 53.7387 90.163 53.0993C90.163 51.86 89.2974 51.2404 87.5663 51.2404H84.6598V55.0321Z" fill="#4FA8A3"/>
<defs>
<linearGradient id="paint0_linear_223_452" x1="66.1904" y1="28.8387" x2="6.35645" y2="28.8387" gradientUnits="userSpaceOnUse">
<stop stop-color="#4FB0A7"/>
<stop offset="0.3" stop-color="#4FADA6"/>
<stop offset="0.48" stop-color="#4EA5A1"/>
<stop offset="0.64" stop-color="#4E979A"/>
<stop offset="0.77" stop-color="#4D8290"/>
<stop offset="0.9" stop-color="#4B6883"/>
<stop offset="1" stop-color="#4A4B74"/>
</linearGradient>
<linearGradient id="paint1_linear_223_452" x1="0" y1="34.5877" x2="72.5526" y2="34.5877" gradientUnits="userSpaceOnUse">
<stop offset="0.01" stop-color="#4A4B74"/>
<stop offset="0.57" stop-color="#4FB0A7"/>
</linearGradient>
<linearGradient id="paint2_linear_223_452" x1="252.081" y1="1524.39" x2="275.359" y2="1524.39" gradientUnits="userSpaceOnUse">
<stop stop-color="#4FB0A7"/>
<stop offset="0.3" stop-color="#4FADA6"/>
<stop offset="0.48" stop-color="#4EA5A1"/>
<stop offset="0.64" stop-color="#4E979A"/>
<stop offset="0.77" stop-color="#4D8290"/>
<stop offset="0.9" stop-color="#4B6883"/>
<stop offset="1" stop-color="#4A4B74"/>
</linearGradient>
<linearGradient id="paint3_linear_223_452" x1="17.0967" y1="25.9701" x2="55.4626" y2="25.9701" gradientUnits="userSpaceOnUse">
<stop offset="0.03" stop-color="#4A4B74"/>
<stop offset="0.97" stop-color="#4FB0A7"/>
</linearGradient>
<linearGradient id="paint4_linear_223_452" x1="92.1175" y1="42.0961" x2="92.1175" y2="20.7767" gradientUnits="userSpaceOnUse">
<stop stop-color="#4FB0A7"/>
<stop offset="0.19" stop-color="#4EA2A0"/>
<stop offset="0.56" stop-color="#4D7F8E"/>
<stop offset="1" stop-color="#4A4B74"/>
</linearGradient>
<linearGradient id="paint5_linear_223_452" x1="3813.53" y1="1513.77" x2="3813.53" y2="946.126" gradientUnits="userSpaceOnUse">
<stop stop-color="#4FB0A7"/>
<stop offset="0.19" stop-color="#4EA2A0"/>
<stop offset="0.56" stop-color="#4D7F8E"/>
<stop offset="1" stop-color="#4A4B74"/>
</linearGradient>
<linearGradient id="paint6_linear_223_452" x1="3758.83" y1="1450.6" x2="3758.83" y2="923.021" gradientUnits="userSpaceOnUse">
<stop stop-color="#4FB0A7"/>
<stop offset="0.19" stop-color="#4EA2A0"/>
<stop offset="0.56" stop-color="#4D7F8E"/>
<stop offset="1" stop-color="#4A4B74"/>
</linearGradient>
<linearGradient id="paint7_linear_223_452" x1="4093.88" y1="1450.6" x2="4093.88" y2="923.021" gradientUnits="userSpaceOnUse">
<stop stop-color="#4FB0A7"/>
<stop offset="0.19" stop-color="#4EA2A0"/>
<stop offset="0.56" stop-color="#4D7F8E"/>
<stop offset="1" stop-color="#4A4B74"/>
</linearGradient>
<linearGradient id="paint8_linear_223_452" x1="5683.44" y1="1513.87" x2="5683.44" y2="946.224" gradientUnits="userSpaceOnUse">
<stop stop-color="#4FB0A7"/>
<stop offset="0.19" stop-color="#4EA2A0"/>
<stop offset="0.56" stop-color="#4D7F8E"/>
<stop offset="1" stop-color="#4A4B74"/>
</linearGradient>
<linearGradient id="paint9_linear_223_452" x1="4814.62" y1="1448.25" x2="4814.62" y2="921.549" gradientUnits="userSpaceOnUse">
<stop stop-color="#4FB0A7"/>
<stop offset="0.19" stop-color="#4EA2A0"/>
<stop offset="0.56" stop-color="#4D7F8E"/>
<stop offset="1" stop-color="#4A4B74"/>
</linearGradient>
<linearGradient id="paint10_linear_223_452" x1="6946.18" y1="1459.06" x2="6946.18" y2="925.141" gradientUnits="userSpaceOnUse">
<stop stop-color="#4FB0A7"/>
<stop offset="0.19" stop-color="#4EA2A0"/>
<stop offset="0.56" stop-color="#4D7F8E"/>
<stop offset="1" stop-color="#4A4B74"/>
</linearGradient>
</defs>
</svg>
